<svg width="516" height="378" viewBox="0 0 516 378" fill="none" xmlns="http://www.w3.org/2000/svg">
<path d="M357.79 22.5633C367.768 28.7377 375.588 36.3714 379.27 47.7702C381.435 57.7603 380.55 66.3165 376.072 75.4663C374.775 77.8753 374.775 77.8753 374.987 80.8585C377.03 82.3826 377.03 82.3826 379.799 83.789C385.355 86.8828 390.744 90.1624 396.109 93.5776C402.973 97.9313 409.873 102.215 416.83 106.419C421.341 109.153 425.815 111.939 430.269 114.766C431.349 115.449 432.43 116.132 433.543 116.836C435.673 118.185 437.799 119.54 439.921 120.901C441.382 121.825 441.382 121.825 442.873 122.767C443.738 123.319 444.603 123.871 445.493 124.439C448.076 125.804 450.065 126.51 452.974 126.744C453.818 126.104 454.662 125.463 455.531 124.803C460.045 121.413 465.593 122.121 470.95 122.718C476.408 124.597 480.337 127.942 483.265 132.95C484.904 139.472 484.554 144.994 481.262 150.91C478.823 154.337 475.771 156.823 472.002 158.717C464.938 159.489 459.51 159.328 453.636 155.13C450.258 152.246 448.352 150.078 447.008 145.753C446.879 142.941 446.879 142.941 447.001 140.753C445.042 140.559 445.043 140.559 443.045 140.361C438.429 139.853 433.919 139.064 429.371 138.142C428.573 137.984 427.775 137.825 426.953 137.662C424.371 137.147 421.79 136.627 419.21 136.106C417.397 135.744 415.585 135.381 413.772 135.019C402.791 132.816 391.832 130.524 380.888 128.145C373.861 126.632 366.82 125.225 359.761 123.873C358.402 123.613 358.402 123.613 357.017 123.347C352.529 122.488 347.991 121.351 343.5 120.51C333.452 118.224 324 116.39 314.098 113.948C313.655 115.338 313.655 115.338 313.203 116.757C311.999 120.268 310.351 123.326 308.497 126.518C307.687 127.939 306.879 129.361 306.072 130.784C305.613 131.59 305.155 132.397 304.683 133.229C299.815 141.864 295.079 150.575 290.33 159.277C288.251 163.081 286.151 166.873 284.034 170.655C283.021 172.468 282.015 174.285 281.012 176.104C279.762 178.369 278.501 180.627 277.226 182.878C276.672 183.89 276.118 184.903 275.547 185.945C275.054 186.83 274.56 187.714 274.052 188.626C272 192.01 273 191.51 274 193.01C276 195.01 276.845 196.038 279.255 196.999C279.756 196.626 280.257 196.254 280.774 195.87C286.579 191.558 292.393 187.259 298.215 182.971C298.953 182.427 299.691 181.883 300.452 181.323C302.384 179.904 304.321 178.493 306.261 177.084C306.836 176.661 307.411 176.238 308.003 175.803C311.955 172.951 311.955 172.951 314.184 172.948C314.005 171.987 314.005 171.987 313.822 171.007C313.158 166.589 312.628 163.053 314.788 159.009C317.752 155.172 319.584 153.283 324.476 152.62C330.186 152.337 333.738 152.952 338.136 156.912C341.023 160.371 341.685 163.398 341.496 167.919C340.687 172.594 337.877 175.296 334.421 178.293C330.471 180.277 327.52 180.614 323.185 179.934C322.273 179.494 321.36 179.053 320.42 178.599C316.795 177.864 316.457 178.017 313.523 179.921C312.151 180.932 310.795 181.966 309.453 183.017C307.962 184.133 306.47 185.248 304.979 186.363C304.206 186.952 303.434 187.541 302.638 188.148C300.171 190.007 297.672 191.812 295.155 193.604C294.334 194.19 293.513 194.776 292.667 195.379C291.07 196.518 289.473 197.657 287.875 198.795C287.154 199.315 286.433 199.836 285.691 200.372C285.051 200.831 284.412 201.29 283.753 201.762C282.117 202.942 282.117 202.942 281.264 204.996C281.581 206.333 281.92 207.665 282.269 208.994C283.134 218.396 282.147 226.758 276.465 234.515C270.615 240.963 263.355 245.377 254.587 246.332C252.105 246.351 252.105 246.351 248.358 246.044C248.251 246.619 248.144 247.195 248.034 247.788C246.687 254.815 245.021 261.74 243.272 268.676C242.996 269.776 242.721 270.876 242.438 272.01C241.766 274.692 241.092 277.374 240.416 280.056C241.344 280.178 242.271 280.3 243.226 280.426C246.412 281.047 246.412 281.047 249.411 283.042C246.115 283.047 242.818 283.052 239.422 283.057C239.09 281.408 238.757 279.758 238.415 278.059C237.926 278.387 237.438 278.715 236.934 279.053C233.381 280.484 229.945 280.282 226.181 280.201C225.437 280.193 224.692 280.186 223.925 280.177C222.096 280.157 220.268 280.123 218.439 280.088C221.836 278.051 224.752 277.71 228.674 277.448C229.751 277.371 230.827 277.295 231.936 277.216C232.755 277.166 233.574 277.116 234.418 277.064C234.623 276.171 234.829 275.278 235.04 274.357C235.803 271.04 236.567 267.724 237.332 264.407C237.663 262.973 237.993 261.538 238.323 260.102C238.797 258.039 239.273 255.975 239.75 253.912C240.036 252.67 240.322 251.429 240.616 250.15C241.367 247.054 241.367 247.054 242.361 244.053C241.702 244.012 241.043 243.972 240.363 243.931C232.939 241.775 226.902 235.566 223.168 228.971C219.504 221.18 218.675 212.5 221.208 204.213C225.678 194.44 232.561 189.184 242.275 185.053C245.243 184.058 247.287 183.88 250.39 183.853C251.279 183.838 252.167 183.822 253.083 183.806C257.254 184.103 261.197 185.033 265.253 186.019C272.326 173.623 279.242 161.16 285.927 148.551C291.196 138.614 296.546 128.736 302.117 118.965C302.861 117.658 303.604 116.351 304.347 115.044C304.927 114.026 305.403 113.059 306 112.01C305.422 111.965 305.095 112.055 304.5 112.01C298 111.01 290.601 110.029 283.738 108.664C282.567 108.435 281.396 108.206 280.189 107.969C276.461 107.239 272.734 106.501 269.007 105.764C266.559 105.284 264.112 104.804 261.664 104.325C241.299 100.329 220.975 96.1446 200.681 91.801C198.842 91.4083 198.842 91.4083 196.965 91.0076C194.04 90.383 191.115 89.7578 188.19 89.1318C187.895 89.9253 187.6 90.7189 187.296 91.5364C186.111 94.3437 185.259 95.2336 182.769 96.8897C182.174 97.298 181.578 97.7062 180.965 98.1268C176.097 100.958 170.681 100.721 165.23 100.165C161.164 98.7171 158.657 96.8132 156.229 93.1786C154.179 91.9892 154.179 91.9892 152.23 91.1844C152.07 73.2824 152.07 73.2824 156.379 68.2408C161.383 63.7675 165.969 61.506 172.724 61.7364C178.489 62.7157 183.369 65.5657 187.724 69.3825C189.727 73.2046 189.984 76.8608 190.176 81.1289C190.856 81.2375 191.536 81.346 192.237 81.4579C204.911 83.514 217.473 85.9217 230.022 88.6331C242.869 91.4002 255.746 94.0143 268.633 96.5881C270.851 97.0313 273.068 97.4759 275.286 97.9219C286.86 100.248 298.371 102.469 310.087 103.953C312.718 99.3296 315.348 94.7058 318.058 89.9418C316.739 89.2837 315.419 88.6257 314.06 87.9476C306.256 80.6157 301.599 73.1188 300.762 62.4007C300.444 50.5589 302.351 41.9317 310.17 32.5783C321.989 20.2774 341.817 14.6394 357.79 22.5633ZM365.008 88.1231C354.351 96.4431 344.161 96.8152 331.054 95.9228C329.049 95.6344 327.046 95.3232 325.059 94.9316C324.057 96.5547 323.061 98.182 322.069 99.8109C321.514 100.717 320.959 101.622 320.387 102.556C318.918 104.779 318.918 104.779 319.082 106.94C326.476 109.044 333.871 110.788 341.415 112.255C342.484 112.467 343.554 112.678 344.656 112.896C348.143 113.584 351.631 114.267 355.12 114.95C357.556 115.43 359.992 115.91 362.428 116.39C366.187 117.132 369.946 117.872 373.706 118.612C382.255 120.293 390.801 121.99 399.345 123.698C401.617 124.152 403.888 124.605 406.16 125.059C409.399 125.706 412.638 126.353 415.876 127.002C431.388 130.123 431.388 130.123 446.989 132.753C442.603 128.996 437.827 126.182 432.865 123.274C425.318 118.804 417.853 114.231 410.446 109.535C403.752 105.291 397.034 101.089 390.307 96.8986C389.303 96.2732 388.3 95.6478 387.265 95.0034C385.375 93.8257 383.484 92.6493 381.592 91.4743C379.916 90.4276 378.246 89.3717 376.583 88.3049C370.519 84.3233 370.519 84.3233 365.008 88.1231Z" fill="#000000"/>
<path d="M286.327 250.986C297.206 250.97 308.084 250.954 319.293 250.938C324.67 265.74 329.979 280.563 335.217 295.415C335.5 296.217 335.783 297.018 336.075 297.845C338.898 305.845 341.718 313.843 344.371 321.901C347.214 315.664 349.23 309.241 351.274 302.704C352.056 300.224 352.841 297.745 353.627 295.267C353.94 294.283 353.94 294.283 354.258 293.279C357.043 284.536 359.941 275.831 362.835 267.124C363.104 266.312 363.374 265.5 363.652 264.662C365.18 260.063 366.711 255.465 368.243 250.866C379.122 250.851 390 250.835 401.209 250.818C401.26 285.798 401.311 320.778 401.364 356.818C394.111 356.829 386.859 356.839 379.387 356.85C379.023 333.751 378.66 310.651 378.285 286.852C374.778 296.257 371.308 305.619 368.087 315.117C363.317 329.085 358.376 342.988 353.413 356.888C347.15 356.897 340.886 356.907 334.433 356.916C333.883 355.311 333.333 353.705 332.767 352.051C325.169 329.943 317.265 307.951 309.354 285.953C309.059 309.383 308.764 332.814 308.459 356.954C301.207 356.965 293.954 356.975 286.482 356.986C286.431 322.006 286.379 287.026 286.327 250.986Z" fill="#000000"/>
<path d="M49.5694 251.334C58.7175 251.279 67.8655 251.224 77.2908 251.168C80.1544 251.146 83.018 251.123 85.9683 251.1C88.2736 251.091 90.5788 251.083 92.8841 251.075C94.0522 251.063 95.2203 251.051 96.4239 251.039C108.026 251.019 119.236 251.479 128.5 259.218C134.604 266.643 135.139 273.817 134.529 283.209C133.349 288.484 130.205 292.383 126.556 296.221C124.913 297.257 123.252 298.265 121.566 299.228C122.218 299.568 122.87 299.907 123.542 300.257C130.71 304.223 135.603 308.317 138.706 316.028C140.888 323.983 140.786 332.895 136.853 340.253C136.444 340.898 136.035 341.543 135.614 342.208C135.226 342.832 134.838 343.457 134.439 344.1C128.833 351.761 119.618 355.077 110.614 356.83C105.097 357.613 99.5773 357.503 94.0153 357.464C92.3219 357.464 92.3219 357.464 90.5942 357.463C86.4197 357.459 82.2451 357.437 78.0706 357.417C68.7164 357.39 59.3622 357.362 49.7245 357.334C49.6733 322.354 49.6221 287.374 49.5694 251.334ZM73.5711 269.299C73.5832 277.549 73.5953 285.799 73.6077 294.299C77.6243 294.362 81.6393 294.416 85.6562 294.446C87.0204 294.459 88.3846 294.477 89.7487 294.501C91.7176 294.535 93.6868 294.547 95.6559 294.559C96.8382 294.573 98.0205 294.587 99.2387 294.602C103.798 294.13 107.164 292.659 110.407 289.397C112.624 285.251 112.264 280.79 111.542 276.243C108.515 271.89 105.541 270.633 100.543 269.259C97.3606 268.992 97.3606 268.992 94.0577 269.073C92.8601 269.082 91.6625 269.09 90.4286 269.098C88.5743 269.126 88.5743 269.126 86.6825 269.154C85.4231 269.165 84.1637 269.176 82.8662 269.187C79.7677 269.215 76.6694 269.256 73.5711 269.299ZM73.6311 310.299C73.6451 319.869 73.6591 329.439 73.6736 339.299C77.7958 339.362 81.9166 339.415 86.0391 339.445C87.4381 339.458 88.8371 339.477 90.236 339.501C103.142 339.989 111 338.508 114.089 333.954C116.889 328.981 116.419 323.761 115.6 318.237C113.728 314.252 110.687 311.785 106.597 310.25C104.024 310.086 101.565 310.025 98.9955 310.066C98.2694 310.07 97.5433 310.074 96.7953 310.078C94.4848 310.093 92.1747 310.121 89.8643 310.15C88.2943 310.162 86.7243 310.174 85.1543 310.184C81.313 310.21 77.4725 310.255 73.6311 310.299Z" fill="#000000"/>
<path d="M422.187 250.789C448.56 250.75 474.933 250.712 502.106 250.672C502.115 256.942 502.124 263.212 502.133 269.672C483.672 269.699 465.211 269.726 446.191 269.754C446.202 277.344 446.213 284.934 446.224 292.754C463.037 292.729 479.85 292.705 497.172 292.679C497.181 298.619 497.189 304.559 497.198 310.679C480.056 310.704 463.951 310.484 446.289 310.51C446.289 319.01 446.289 328.925 446.289 337.669C465.41 337.971 484.53 337.358 504.231 337.669C504.24 343.939 504.249 350.209 504.259 356.669C477.226 356.709 450.194 356.748 422.343 356.789C422.291 321.809 422.24 286.829 422.187 250.789Z" fill="#000000"/>
<path d="M239.413 277.057C239.911 279.532 239.911 279.532 240.419 282.056C241.071 282.081 241.722 282.105 242.394 282.131C251.056 282.681 255.838 285.958 261.807 292.099C264.33 295.12 265.978 298.369 267.421 302.016C267.777 302.879 268.134 303.743 268.502 304.632C271.51 315.618 270.773 329.019 266.016 339.354C260.544 348.868 252.666 354.638 242.216 357.928C230.942 360.643 218.831 359.885 208.534 354.36C198.151 347.767 192.828 339.557 189.971 327.782C187.906 315.249 189.884 303.914 196.48 293.12C198.546 290.374 200.77 288.237 203.463 286.11C204.184 285.539 204.906 284.968 205.65 284.38C213.914 278.899 222.723 279.218 232.308 279.291C234.883 279.015 236.991 277.061 239.413 277.057Z" fill="#000000"/>
<path d="M30.406 126.361C40.7549 126.346 49.608 127.344 57.3282 134.759C58.3391 135.604 59.3499 136.448 60.3913 137.317C63.5664 136.892 63.5664 136.892 66.3823 135.309C67.2268 135.142 68.0713 134.976 68.9414 134.805C71.581 134.259 73.8963 133.359 76.3676 132.294C77.0289 133.613 77.6902 134.932 78.3714 136.291C74.0892 138.607 69.807 140.924 65.395 143.31C65.8915 144.712 66.3881 146.114 66.8997 147.558C69.8809 157.627 69.1933 166.924 64.4443 176.312C58.6272 185.822 51.1494 190.591 40.4938 193.347C37.1971 193.351 33.9005 193.356 30.504 193.361C30.4717 171.251 30.4393 149.141 30.406 126.361Z" fill="#000000"/>
<path d="M154.506 281.184C161.099 281.174 167.692 281.164 174.485 281.154C174.521 305.904 174.558 330.654 174.595 356.154C158.611 356.178 158.611 356.178 155.613 355.182C155.248 330.763 154.882 306.343 154.506 281.184Z" fill="#000000"/>
<path d="M152.206 75.1831C152.536 75.1826 152.866 75.1821 153.205 75.1816C153.172 76.3135 153.139 77.4453 153.105 78.6114C153.079 80.0932 153.054 81.5751 153.03 83.0569C153.006 83.8033 152.982 84.5497 152.957 85.3187C152.894 87.7443 152.894 87.7443 153.229 91.1816C154.219 91.8401 155.209 92.4987 156.229 93.1772C146.391 98.7045 136.519 104.161 126.595 109.533C117.42 114.504 108.316 119.589 99.2583 124.772C97.5089 125.772 95.7565 126.767 94.0007 127.756C92.1237 128.829 90.2644 129.933 88.4185 131.058C86.9756 131.913 86.9756 131.913 85.5036 132.785C84.2063 133.575 84.2063 133.575 82.8829 134.381C80.368 135.288 78.1756 137.402 75.5 136.508C74.3505 135.964 75.1727 137.562 74 137.008C71.7177 137.777 73.0879 134.065 71.3772 135.301C70.7169 134.642 67.1803 135.981 66.5 135.302C67.6028 134.729 71.5818 132.159 72.718 131.569C82.9002 126.249 92.9324 120.711 102.903 115.005C108.484 111.818 114.095 108.719 119.784 105.731C121.115 105.015 122.446 104.3 123.777 103.584C127.274 101.714 130.822 99.9679 134.383 98.2248C136.505 97.1348 138.627 96.0431 140.747 94.9499C141.768 94.4721 142.789 93.9943 143.841 93.502C146.8 91.9378 148.967 90.6631 151.226 88.1845C152.372 83.79 152.474 79.7011 152.206 75.1831Z" fill="#000000"/>
<path d="M153.463 251.182C160.715 251.171 167.968 251.16 175.44 251.149C175.449 256.759 175.457 262.369 175.465 268.149C168.213 268.16 160.96 268.171 153.488 268.182C153.48 262.572 153.471 256.962 153.463 251.182Z" fill="#000000"/>
<ellipse cx="229.5" cy="319.01" rx="42.5" ry="42" fill="#000000"/>
<ellipse cx="251.5" cy="215.127" rx="32.5" ry="32.1176" fill="#000000"/>
<ellipse cx="326" cy="165.822" rx="16" ry="15.8118" fill="#000000"/>
<ellipse cx="341" cy="58.5392" rx="40" ry="39.5294" fill="#000000"/>
<ellipse cx="466" cy="140.774" rx="20" ry="19.7647" fill="#000000"/>
<circle cx="171" cy="81.0098" r="21" fill="#000000"/>
<line x1="370.842" y1="81.0338" x2="454.842" y2="133.034" stroke="black" stroke-width="7"/>
<line x1="309.806" y1="109.092" x2="450.806" y2="138.092" stroke="black" stroke-width="8"/>
<line x1="279.806" y1="103.092" x2="420.806" y2="132.092" stroke="black" stroke-width="8"/>
<line x1="52.3143" y1="147.942" x2="163.314" y2="86.9424" stroke="black" stroke-width="7"/>
<line x1="259.478" y1="209.114" x2="325.134" y2="87.1146" stroke="black" stroke-width="8"/>
</svg>
